<svg xmlns="http://www.w3.org/2000/svg" viewBox="0 0 2872.89 1531.58">
  <defs>
    <style>
      .cls-1 {
        opacity: 0.13;
      }

      .cls-2, .cls-3 {
        fill: none;
        stroke: #fff;
        stroke-linecap: round;
        stroke-linejoin: round;
      }

      .cls-2 {
        stroke-width: 0.99px;
      }

      .cls-3 {
        stroke-width: 0.53px;
      }
    </style>
  </defs>
  <g id="Layer_2" data-name="Layer 2">
    <g id="Graphic_Elements" data-name="Graphic Elements">
      <g class="cls-1">
        <g>
          <path class="cls-2" d="M2094.56,224c-71.44,11-134.39-33.19-203.75-39.44-27.3-2.71-54.37,2.84-81.39,5.94-38.49,4.83-77,9.41-115.51,14-125.45,15-250.74,31.23-376.12,46.75-25,3.64-50.54,4.38-75,10.84-72.64,20.82-129.07,75.1-197,106.15-120.51,63.12-238.23-51-360.86-39q-27.92,63-55.78,126c-10.82,25.75-24.46,50.44-30.81,77.84-21.46,92.51-29.07,187.72-48.24,280.7-10.46,40.08-19.32,128.7-75.32,122.56-61-9.68-83.5-.16-109.37,57.69-19.6,44.69-36.81,90.41-53.85,136.16-42.33,114.43-83.13,229.6-132.35,341.35q188.08-23.17,376.16-46.49c77-7.78,154.14-23.7,231.65-23.61,119.63,2.1,235.31,37.71,353.94,49.23,109.87,11.75,185.35-3.81,283-54.45,90.45-45.59,175.22-101.44,264.11-149.88,65.6-35,134.14-70.38,209.2-77.7,51.15-5.52,102.9-2.27,153.43,6.94,69.67,12.71,138.53,32.72,209.82,33.59,37,1.18,73.88-3.71,110.54-8.53q62.54-7.86,125.11-15.5c125.41-15.36,250.87-30.35,376.21-46.27-38.44-53.28-90.55-95-153.85-114-32.51-10.89-64.29-26.24-87.45-52.23-42.27-47.7-67.12-107.89-93.47-165.24-42.15-94-75.39-192.17-123-283.61-17.21-31.22-40.79-58.17-61.28-87.2q-51-69-102-137.93C2212.74,244.77,2133.15,268.17,2094.56,224Z"/>
          <path class="cls-2" d="M2817.39,1078.82c-122.91,19.45-247.61,21.32-371.49,30.7-36.62,2.77-73.2,6.2-109.62,10.93-42.15,6.39-84.64,12.22-127.35,8.47-66.52-4.3-130.33-24.82-195.41-37.58-51.34-10.25-104.28-13.91-156.29-6.69-72.67,8.48-137.69,46.3-199.49,83.15-86.24,52.52-167.52,113.34-257.19,160.11-84.29,46.74-172.51,57.69-267,42.34-108.23-15.85-212.67-54.47-322.43-60.21-33.93-2.22-67.71,1.84-101.29,6.3q-59.55,7.26-119.05,14.93c-124.25,15.93-248.39,32.66-372.76,47.59"/>
          <path class="cls-2" d="M2768.57,1045.59c-113.39,16.66-228,2.62-341.82-.59-64.18-3.12-128.17,2.4-191.81,10-48.8,3-97.55-4.3-144.93-15.54-98.52-24.37-200.87-58.53-302.85-34.12-65.12,17.42-121.35,57.09-175.35,96-82.13,59.72-158.58,128.57-248.77,176.27-78.19,44.56-171,39.56-255.29,16.73-97.92-24.48-192.1-66.65-293.47-75.38-32.31-3.17-64.58.81-96.58,5.15q-56.43,7.07-112.77,14.92c-117.09,16.16-234,33.78-351.34,48"/>
          <path class="cls-2" d="M2724.34,1027c-171.21,18.63-336.87-65.63-508.18-42-55.59,4.78-111.15-5.15-164.79-19.12-105.42-26.4-219.4-74-327.45-35.43-59.86,24.7-109.26,68.39-157.18,110.89-76.16,67.2-145.7,145.5-236.78,193-79.84,42.27-173,13.6-252.22-15.84-90.1-33.14-177.61-80.13-274.53-89.09-29-2.85-57.86,1.81-86.53,5.63-35.44,4.72-70.82,9.88-106.16,15.24-108,16.42-215.66,34.69-324.06,48.1"/>
          <path class="cls-2" d="M2683.13,1010.73c-147.52,10.08-279.39-76.45-423.78-90.76-36.14-4.93-72.11,2.37-108.27,1.16-45.5-1.51-90.19-11.54-133.92-23.63-99.58-26-247.59-89.39-345.06-37.94-71,39.38-123,104.14-177,163.19S1389,1146.56,1318,1186c-81.47,44.67-178.26-3.21-254.78-38.06C978,1108.2,894.76,1055.15,799.41,1045c-25.51-2.71-50.87,1.91-76.07,5.34-34.84,4.9-69.59,10.4-104.28,16.19-100.54,16.84-200.75,35.85-301.92,48.62"/>
          <path class="cls-2" d="M2643.36,984.63c-57.4,4.76-113.6-13.08-166.51-33.52-73.59-28.5-144.12-66.28-221.29-84.63-22.4-5.18-45.35-8.42-68.36-8.21-20.61.5-41.12,3.71-61.78,2.34-45.87-1.84-90.8-12.68-134.74-25.36-97.67-26-265.59-101.93-357.24-41-77.79,52.43-128,134.89-185.76,206.87C1408.3,1050.6,1368.45,1103,1313,1135.27c-78.41,45.14-175.25-10.91-246.22-48.27-84-44.77-164.93-105.28-261.51-117.85-23.69-2.87-47.27,1.66-70.67,4.88-32.66,4.71-65.21,10.14-97.7,16-96.78,17.39-193.12,37.61-290.75,49.87"/>
          <path class="cls-2" d="M2603.47,936.53c-129.8,9.36-249.12-93.31-372.13-125.13-22.37-6-45.44-10-68.65-10-18.74.18-37.35,3.46-56.13,2.29-44.71-1.62-88.4-12.81-131-25.65-99.75-27.76-263.33-106.79-358.07-42.58-75.64,53.86-122.1,137.58-177.17,210.42-36.93,49.25-74.51,101.64-128.63,133.17-80.38,44.59-172.83-14.08-243.25-53.89-76.18-43.92-149.19-100.3-236.91-118.33-25.28-5.2-51-1.72-76.25,1.75-31,4.09-61.87,9.28-92.61,15.09-96,18.31-191.09,41.88-288.41,52.22"/>
          <path class="cls-2" d="M2562.81,862.23c-137.88,6.43-253.36-89.66-386.29-110.46-34.27-6.94-68.85.38-103.3-2.81-42.7-3.76-84.09-15.91-124.77-28.89-104.43-32.18-230-89.27-332-22.35-75.4,54.78-124.34,136.78-182.89,207.7-36.72,44.69-75.23,91.51-128,117.56-82.68,38.85-174-22.94-244.73-63.09-66.95-39.12-132.3-86.43-209.21-103.33-23.46-5.23-47.51-3.27-71.1-.08-31.36,3.93-62.37,10.28-93,17.95-94.34,23.8-186.49,59.1-284.1,67.41"/>
          <path class="cls-2" d="M2522.32,771.91c-134.07,11-255.17-67.77-387.46-74.17-25.69-1.87-51.16,3.5-76.83,1.88-33-1.66-65.29-9.2-97-18-119.89-35.25-235-83.52-348.54-1.47C1503.45,758.94,1426.76,916.25,1303,968.25c-95.28,35.11-190.65-37.49-270.71-81.57-53.35-30.48-107.67-64.21-169.34-73.77-148.84-9.47-282,106.38-429.52,120"/>
          <path class="cls-2" d="M2483.1,677.14c-92.63,12.38-184.44-12.06-275.89-23.48-52.2-7.89-104.88-6.89-157.13-.69-39,1.24-77.35-7.5-114.85-17.19-132.87-36.06-199.83-54.26-318.9,30.49-105,74.45-186.38,209.54-310.81,250.54-58.85,18.25-117.21,1.13-170.4-25.77-55.24-26.86-106.95-60.53-162.58-86.62-32.57-15-67.07-28.29-103.3-29.5-151,5.17-259.33,139.67-406.41,160.35"/>
          <path class="cls-2" d="M2446.22,589.47c-132.81,22.1-268.63-5.68-401.35,17.53-44.38,5.87-88.71-4.21-131.72-14.34-75.79-19.85-159.29-33.66-228.55,12.73a264.64,264.64,0,0,0-33.85,25.47c-19.17,12.26-37.27,26.22-54.81,40.72-89.62,72.15-171.45,172.92-287.46,200.7-58.92,13.05-107.09,1-160.64-24.5-62-28.5-119.54-66.35-183.33-91C781.53,679.05,658.18,908,490.44,935.33"/>
          <path class="cls-2" d="M2412.77,520.47c-121.41,19-244.55,23-366.12,40.69-45.21,9.49-91.17,2.43-135.41-8.63-81.08-21.26-158.12-33-228.88,22.63C1654.63,597,1630.48,623,1604,646.23c-81.73,74.1-164.88,158.46-274.94,186.69-61.42,16.24-116.5.71-172.18-26.15-62.8-29.08-121.58-67.07-187-90.24-73.92-28.5-134.78-8.47-196.94,35.89-83.47,56-155.66,147.59-258,166.9"/>
          <path class="cls-2" d="M2383.37,477.24c-111.66,12.2-222.6,30-334.1,43.37-20.19,2-40.3,5.39-60.55,6.56-22.65.81-45.21-2.6-67.28-7.46-124.32-33-197-51.42-291.73,55.2-82.16,87.26-168.82,188.63-287.4,224-104.93,29.54-250.24-82.37-351.11-116.06-42-14.77-89.41-28.22-132.21-9.56C740.51,719.05,660.66,847.06,535,875"/>
          <path class="cls-2" d="M2355.82,440c-111.6,11.49-220.41,40.66-331.6,55-54.51,8.89-88.89,7.43-141.35-10.78-95-34-171.09-56.84-251.72,22-84.88,80.12-164.92,186.84-277.29,228-74.49,28.11-221.4-41.94-297.41-66-48.1-15.62-98.72-31.37-149.74-27.91C777.66,670.91,681,778,551.42,807.06"/>
          <path class="cls-2" d="M2329.62,404.53c-82.25,9.59-161.14,35.88-241.24,55.62-32,7.89-64.34,14.76-97.05,19.08-29.77,5.45-60.18,1.34-88.37-9.21-57.66-20.33-109.29-58.93-171-66.75C1652.3,392.33,1596.5,461.59,1542.65,509c-45.29,42.16-90.24,85.75-143.18,118.33-36.84,23.17-78.31,37.18-122.07,30.14-112.72-7.62-223.94-36.87-337.44-30.82-128.49,17.61-246.49,79.85-374.62,99.77"/>
          <path class="cls-2" d="M2304.68,370.79c-80.86,11.12-155.71,45.48-232.75,70.53-42.12,12.09-92.12,31.22-136,23C1874,450.4,1826.12,405.16,1772,374.85c-77.6-45.68-126.57-36.22-195.59,17.73-80.35,58.49-159.66,153-258.44,176.07-16.29,3.53-33,2-49.57,2.13a727.45,727.45,0,0,0-75.41,4c-76.26,7.62-149.46,31.91-225.11,43.21-129.64,12.2-260.12,14.87-389.91,25.7"/>
          <path class="cls-2" d="M2280.91,338.63c-57.55,8.59-110.91,33.12-163.54,56.8-51.55,21.82-146.72,70.9-200.68,49.42C1821.85,414.3,1739.4,272.78,1635,290.62c-34.51,8.16-64.63,28.37-93.28,48.51-35,25.21-68.12,53.05-102.61,79-156.74,119.87-149.58,39.82-280,95.51-64.86,29.68-117.5,94-192.87,95.51C839.9,608.32,717,566.29,590.45,569.2"/>
          <path class="cls-2" d="M2258.21,307.92c-60.14,8.29-114,38.29-167.28,65.63-36.92,19-74.43,37.81-114.73,48.53-29.68,9.35-61.77,9.42-89.45-6.06-57.34-30.23-99.21-81.71-148.59-122.54-44.85-38.54-95.61-68.33-154.14-39.19-64.71,29.61-116.75,79.91-174.45,120.52-33.92,23.89-69.89,47.92-111.24,56-14.95,3.26-30.15,1.29-45.19.38a172.59,172.59,0,0,0-48.91,4.74c-65.82,14.93-98.42,79.14-144.78,121.5-18.13,16-40.44,28.23-64.74,31C952.14,591.16,910,581.31,869,570.7c-87.36-21.65-173.47-61.31-265-57.22"/>
          <path class="cls-2" d="M2234.52,281.77c-73.84,12-138.37,52.13-205.85,81.92C1995.19,378,1960.28,392,1923.81,395.6c-20.85.19-41-7-59.13-16.82-55.67-31.17-98.2-80.26-148.6-118.63-44.48-34.49-91.3-58.32-145.67-29.51-96.1,43-177.85,146.38-281.2,166.78-13.74,2.52-27.5.32-41.37-.05-19.07-.3-38.24,2.57-56,9.57-60,22.83-87.24,86.31-135.06,124.71-97.8,81.29-312.17-70.06-437.91-53.23"/>
          <path class="cls-2" d="M2205.83,266.4c-70.22,11.2-135.43,40.56-202.41,63.05-30.77,9.95-62.14,19.47-94.3,23.46-22.39.74-44.33-5.79-64.5-15.09-70.74-32.74-125-95.27-200-119.69-32.73-11.85-66.81-2.51-97,12-77.61,35.91-142.19,96.07-222.52,126.57-67.21,25.37-99.14-9.4-168.77,44.48-44.06,33.55-73.06,86-124.65,109.51C921.8,554,754.55,432.19,633.24,446"/>
          <path class="cls-2" d="M2174.66,257.65c-67.95,8.66-134.82,23.59-202.17,35.78-58.9,10.05-105.55,22.45-163.48-1.28-116.71-45.1-175.27-109.47-304.33-45.52-65.25,28.93-125.89,70.21-196,87-22.74,6.26-46.27,3.54-69.44,5.86-62.08,6.55-106.69,54.22-150.53,93.88-35.34,33.37-80,56.63-129.81,50.31C852.21,475,755.6,407,647,414.93"/>
          <path class="cls-2" d="M2143.84,250.81c-67.22,6.58-134.72,2.6-202.09,4.14-43.5-.52-86.61,10.36-130,5.1C1732,251.5,1654,215.7,1572.78,230.4c-80.6,9.72-153.26,49.65-231.32,69.42-29.74,8.51-60.5,10.35-91.22,11.19-25.28,2.37-49.62,11.06-71.69,23.42-57.68,31.52-100.88,87.11-164.46,108-117.32,32.66-235.39-70-354-57.25"/>
          <path class="cls-2" d="M2116.19,241.18c-76.61,7.52-149.52-24.81-225.62-25.22-32.63-.68-64.48,8.64-97.15,8.78-48.94,2.22-97.93-1-146.89.48-87.2,3.81-172.92,21.86-257.83,41.17-43.34,9.67-87.29,15.91-131.66,17.62-76.43,8.65-132.61,67-196.59,103.69-129.64,83.5-254.58-43.84-387.68-31.05"/>
          <path class="cls-2" d="M722.65,328.9c-17.4,39.11-31.26,79.66-46.92,119.49-9.94,27.31-24.2,53-30.24,81.59-21.17,92.64-31.61,187.47-51.75,280.34-9.17,32.86-13.67,87.28-43.85,106.69-18,10.65-39.55,4.82-59.26,6.28-49.37,1.59-66.84,55.33-82.1,94-16.95,43.68-32,88.08-47.08,132.48C326,1255,291.21,1360.58,248.26,1463.05"/>
          <path class="cls-2" d="M761.15,335.35c-15.81,38-24.94,78.34-37.3,117.53-8.3,29.24-22,56.55-28.72,86.25-23.24,93.49-39,188.8-63.92,281.91-27,131.17-87.66,45.16-140.25,123.37C476,968,467.89,995.23,458.3,1021.34c-14,40.45-26.51,81.43-38.91,122.43C388,1248.15,357.2,1353,317.32,1454.52"/>
          <path class="cls-2" d="M800.16,346.26c-14.85,40.7-18.77,84.24-28.81,126.18-9.2,39-24.14,76.36-34.57,115.09-16.31,55.12-32.24,110.4-48.89,165.42C676.8,784.74,671.2,819.34,654,848.52c-46.87,60.14-92.66,4.86-135.72,143.13-47.79,150.28-77.32,306.09-131.9,454.33"/>
          <path class="cls-2" d="M839.39,359.28c-15.23,51.29-10.41,106-22.78,158-14.11,56.36-41.52,108.35-63.5,161.89-12.33,28.68-24.39,57.48-35.23,86.76-7.81,20.93-13.51,43.39-28.33,60.72-18.19,22.39-46.42,32.78-66.7,52.88-36.46,35.22-48,86.84-61.31,134-36.24,141.07-59.88,285.54-106.14,424"/>
          <path class="cls-2" d="M878.6,372.05c-13.37,57.63,1.46,118.08-12.22,175.82-8.08,35-31.24,64-50.68,93.39-26.29,37.59-51.16,76.93-64.72,121.1-11.44,34.15-38.81,58.12-63.87,82.44-43.31,42-59.36,102-72.24,159.12-31,141.44-48.39,286.05-90.44,425"/>
          <path class="cls-2" d="M917.51,382.21c-9.73,52.27,7.29,105.22,3,157.86-.37,29.51-11.62,54.54-33.77,74.11-31.4,28.39-68,54.46-83.29,95.67-14.16,52.6-39.33,80.43-71.82,121.86-26.19,34.83-42.87,75.79-52.9,118-35,155.56-42.5,316.53-85.22,470.61"/>
          <path class="cls-2" d="M955.88,387.39C942,449.78,1001,568,941.57,611.23c-27.52,18.33-64.11,25.41-82.34,55.55-9,13-12.33,28.55-16.89,43.42a237,237,0,0,1-17.67,40.32c-15.39,28-35.07,53.24-50.7,81.07a367.76,367.76,0,0,0-36.47,90.26c-17.23,68.8-23.14,139.81-31.38,210.14-10.42,93.8-21.23,188-43.58,279.84"/>
          <path class="cls-2" d="M993.45,385.28c-12.54,61.17,49.87,176.52-4.26,222.27-23.71,16.17-56.62,16.32-76,39.36-12.86,13.79-17,32.51-21.91,50.12a273.1,273.1,0,0,1-16.6,40.85c-28.85,54.24-64,106-78.43,166.6-17.85,70.69-21.52,144-28.21,216.41-8,94.63-16.16,189.65-36.38,282.62"/>
          <path class="cls-2" d="M1030.18,374.87c-10.86,68.6,47.14,168.77-7.77,225-26.56,24.3-59.18,44.36-72.59,79.6-13.9,43.14-34.67,83.31-55,123.69-18.92,38.77-33.49,79.66-42.15,122-26.28,157.72-20.49,319.4-51.23,476.68"/>
          <path class="cls-2" d="M1066.17,358.09c-6,38.36,4.34,76.84,7.2,115.06,8.2,59.67-12.16,111.51-40.1,163-19.16,35.39-33.8,72.77-48.83,110C953.26,815,924,885.64,913.32,961.08c-19.46,148.35-16.53,299-41.31,446.83"/>
          <path class="cls-2" d="M1101.71,337.31c-9.22,47.74,3.46,96.52-1.13,144.64-8.82,64.51-11.25,130.12-27,193.6-10.07,46.66-32.48,89.05-48.85,133.59a830.16,830.16,0,0,0-47,187.78c-16.08,140.23-14.36,282-34.65,421.9"/>
          <path class="cls-2" d="M1137.08,314.89c-8.2,31.89-6.07,65.17-7.59,97.78.06,23.91-5,47.28-7.91,70.74,1.68,67.92,9.46,135.91,4.71,203.87-1.61,22.29-4.46,44.64-10.91,66.08-6.81,19.89-17.43,38.26-24.12,58.27-15.28,41.06-26,83.7-34,126.75-30,162.79-22.1,329.42-42.79,493.35"/>
          <path class="cls-2" d="M1172.56,293.21c-9.24,33.43-9.49,68.43-13.45,102.7-1.41,13-3.18,26-5.68,38.85-1.2,7.55-4.29,14.61-2.89,22.38,6,60.82,17.6,121,23.48,181.88,4.1,50.26,10.25,103.2-5.71,151.94-41.35,77.39-48.42,167.36-57.57,253.18-12.82,132.92-12,266.67-25,399.62"/>
          <path class="cls-2" d="M1208.43,274.64c-8.18,34.43-10.27,69.9-14.88,104.9-1.6,12.6-3.42,25.18-5.67,37.67-1.19,6.57-3.05,12.68-1.59,19.44,8.85,66,24.77,130.9,34.76,196.73,7.6,54,17.46,109.92,7,164.15-1.76,9.93-6.57,18.31-11.69,26.75a215.47,215.47,0,0,0-15,36.07c-20,65.25-22.71,134.17-27.21,201.84-8.83,129.85-8.81,260-17.56,389.88"/>
          <path class="cls-2" d="M1245,261.54c-4.31,36.14-6.22,72.5-9,108.76-.65,19.26-5,38.42-3.67,57.65,9.68,69.89,28.52,138.32,40.35,207.89,8.76,55.2,20.73,112.36,10.56,168.07-2,11-7.62,20.41-14.07,29.3a149.14,149.14,0,0,0-14.09,31c-20.55,66.62-18.53,137.54-20.9,206.54-4.09,127.69-3.19,255.36-7.41,383.07"/>
          <path class="cls-2" d="M1282.27,255.56c.87,60.6-1.23,121.4,1.85,181.9,11.56,74.18,31.21,147.05,42.89,221.27,6.64,48.41,17.2,99.31,4.71,147.47-2.43,8.92-8.64,15.62-13.31,23.3-6.35,10.62-10.85,22.24-14.31,34.11-17,63.74-13.47,130.67-13.77,196.05-1.64,128.7,7.73,257.07,6.26,385.79"/>
          <path class="cls-2" d="M1319.6,251.08c.48,35.67,3.54,71.19,5.43,106.8,1.83,23,.33,46.2,3.77,69.08,13.45,79.08,32.84,157.26,44.15,236.75,5.23,44.37,14.18,91,2.5,134.87-13,25-22.87,51.28-26.43,79.39-7.2,47.87-6.34,96.48-5.66,144.76,1.13,40,.49,80,4.26,119.89,9.57,92.47,24.36,184.51,24.23,277.77"/>
          <path class="cls-2" d="M1356.94,246.46c1,31,7.37,61.28,11.42,91.9,3.38,22.82,2.73,45.92,6.94,68.64,16.62,96.07,38.16,191.7,46.85,289,1.9,25.83,3.79,52.14-.75,77.73-4.55,18.22-14.27,34.68-17.78,53.31-10.34,43.12-10.49,87.84-9.86,132,1,49.71,2.34,99.69,12.65,148.53,19,90.74,42.48,181.08,45.61,274.25"/>
          <path class="cls-2" d="M1394.29,241.76c.8,26.43,12.77,50,19.06,75.16,10.84,73.79,23.85,147.44,35.15,221.26,9.11,67.37,20.91,135.46,17.2,203.6C1463.54,764,1452.24,783.93,1449,806c-6.83,33.65-6.9,68.17-5.8,102.38,1.11,26.94,1.89,54.08,6.86,80.7,10.35,57,31,111.46,47.67,166.84,18,58.33,32,118.08,37.44,179"/>
          <path class="cls-2" d="M1431.64,237c2.16,30.43,18.45,30.5,27.73,53.71,7.09,22.36,8.22,46.12,12.46,69.2q9.7,64.54,18.05,129.44c8.7,74.49,19.48,149.43,18,224.55-.25,12.68-5.18,24.3-7.93,36.52-5,18.6-8.39,37.64-8.81,56.95-1.45,55.84,5.9,111.87,26,164.23,38,103.16,88.13,203.51,102.09,313.83"/>
          <path class="cls-2" d="M1469,232.29c5.63,30.19,16.59,13.57,32.53,24.9,13,16.89,11.3,40.48,15.4,60.66,4.28,31.87,7.92,63.92,11.36,95.95,6.47,61,12.19,122.18,16.61,183.36,1.9,29.77,4.37,59.75,4.16,89.51-1.44,16-5.49,31.38-8.37,47.07-6,59.62,8.15,119.91,32.1,174.41,47,108.47,109.07,212.57,129.61,330.51"/>
          <path class="cls-2" d="M1506.33,227.62c10.78,43.43,44.78-39.15,53.6,43.53,13.61,110.82,17.52,222.77,26,334.06,1.13,19.36,3.79,38.64,3.78,57.95.47,13.3-2.86,26.28-2.28,39.56,2.94,43,10.94,86.08,28.79,125.68,54.72,124,137.8,237.09,166.37,371.62"/>
          <path class="cls-2" d="M1543.65,223.06c10.54,40.54,44.62-40.11,56.8,10,8.22,39.34,8.31,80.06,10.69,120.12,2.55,57.62,4.06,115.38,7.65,172.94,1.66,39.73,8,78.87,14.67,117.92,6.34,45.15,13.27,91.12,30.52,133.64,59.31,134.76,159,251.9,193.84,397.23"/>
          <path class="cls-2" d="M1581,218.37c11,37.11,46.31-31.52,60.18,8.24,10.68,33.58,10.17,69.72,12.85,104.63,3,56.42,4.38,113.05,10,169.29,3.8,42.79,16.1,84.09,22.64,126.42,9.65,46.56,15.09,94.83,34,138.86,62.54,136.34,164.84,254.2,205.26,400.69"/>
          <path class="cls-2" d="M1618.32,213.69c11.91,34.72,50.49-10.41,64.63,30.32,12,32.27,13.17,67.38,16.89,101.34,5.46,55.82,7.7,112.46,20.93,167.14,14.38,53.85,21.27,109.39,33.83,163.72,7.15,33.5,12.94,67.59,28.52,98.54,63.72,132.83,159.43,250.44,203.47,392.58"/>
          <path class="cls-2" d="M1655.65,209.13c10.21,32,51.46,25.44,64.67,56.24,19.62,40.24,21.55,86.08,28.48,129.66,4,28.73,8.19,57.56,15.25,85.73,3.77,16.3,10.93,31.46,13.71,48q17,77.29,35.56,154.1c9.11,38,16.5,76.57,34.65,111.59,62.27,127.68,149,243.79,194,379.65"/>
          <path class="cls-2" d="M1693,204.66c8.73,25.66,30.14,43.15,47.08,63.26,14.34,16.15,22.48,36.09,30.66,55.74,16.75,44,20.91,91.6,33.4,136.85,4.64,17.72,10.18,35.08,17.82,51.75q8.58,33.82,17.68,67.45c11.82,43.45,24.43,86.61,36.52,130,10.34,39.09,21,78.16,39.7,114.32,58.93,120.31,134.43,233,178.63,360.25"/>
          <path class="cls-2" d="M1730.32,200.2c12.39,34.62,34,64.8,51.45,96.9,13.08,22,21.16,46.45,32.27,69.4,16.84,38.92,24.7,81,40.15,120.46,4.36,11.58,9.24,22.67,14.71,33.78q11.3,38,23.62,75.68c20.7,62.81,42.23,125.28,62,188.42,21.61,61.21,53.3,118.16,82.84,175.81,39.84,76.43,79.24,153.48,108.92,234.57"/>
          <path class="cls-2" d="M1767.65,195.7c19,52.32,44.64,102,65.75,153.47,9.8,26.91,22.24,52.36,34.64,78.11,14.92,34.19,28.76,68.86,45.9,102.05,34.87,95.22,72.68,189.6,107.51,284.94,54,132.4,127.67,256.07,178.17,390.09"/>
          <path class="cls-2" d="M1805,191.1c28.33,74.42,56.29,149.18,85.7,223.15,26.8,50.14,60.3,96.87,80.88,150.18,46.79,108.82,92.58,218.06,139.92,326.65,48.68,105.89,100.71,210.29,145.35,318"/>
          <path class="cls-2" d="M1842.33,186.34c33.41,79.11,56,162.71,91.92,240.79,11.48,24.65,30.48,44.09,46.41,65.74,15.48,21.8,27,46.06,38.11,70.32,100.12,214.73,201.11,429,301.38,643.71"/>
          <path class="cls-2" d="M1878.29,184c35,79.24,61.9,162.22,100,240.05,12.18,23.22,31.37,41.18,47.52,61.47,16.14,20.58,28.07,44,39.95,67.16,51.05,102.51,99.63,206.24,151.63,308.29,56.73,112.75,116.3,224,171.63,337.51"/>
          <path class="cls-2" d="M1910.73,187.23c22.19,47.49,45.34,94.59,68.17,141.77,15,29.17,27,60,44.24,87.93,14,22.53,33.13,41.05,49.27,61.94,17.68,22.67,31.61,47.93,45.18,73.21,51.57,101.17,96,205.9,151.48,305.1,61.07,112,131,218.88,189,332.68"/>
          <path class="cls-2" d="M1940.71,194.41c23.27,43.5,51.1,84.41,76.67,126.57,18.42,28.42,32.66,59.38,51.93,87.21,20.61,29.06,45.6,54.74,65.1,84.64,26.8,39.71,47.6,83,67.55,126.5,42,92,81.89,185.42,135.13,271.7,62,97.7,135.14,188,190,290.36"/>
          <path class="cls-2" d="M1969.4,203.64C2001,253,2045.06,293,2078.29,341.18,2116.63,406.06,2169.52,460.64,2207,526c51.12,94,86.15,195.91,134.22,291.49,31.9,68.07,75.85,129.26,126.83,184.28,47.79,53,91.41,109.77,128.07,171.18"/>
          <path class="cls-2" d="M1998,213.06c31.18,40.94,78.45,65.63,112.82,103.61,20.58,21.62,34,48.68,52.27,72.15,31.91,43.08,65,85.4,92.63,131.46C2317.75,635.91,2356,763,2418.35,878.57c16.55,31.77,37,61.41,61.91,87.18,25.72,27,55.23,49.93,82.4,75.44,39.4,36.43,73.24,78.42,102.57,123.38"/>
          <path class="cls-2" d="M2027.57,220.83c32.26,36.76,83.91,47.2,120.34,78.92,18.12,14,29.16,34.06,42.07,52.46,16.6,23.83,34,47.09,51.06,70.56,28.64,40.41,59.47,79.79,80.83,124.74,61.39,127.83,101.67,266.12,175.35,387.9,32.84,51.17,87.55,79.23,135.71,113.44,39.9,29.32,73,66.78,101.37,107.27"/>
          <path class="cls-2" d="M2059.38,225.11c40.73,42.91,118.22,32.4,154,87.36,49,73,106.52,140.34,151,216.16,49.22,98,84,202.5,129.28,302.29,23,48.67,43.93,100.22,80,140.85,24.07,27.17,56.72,43.85,89.31,58.56,57.14,24.59,104.27,67,140.35,117.25"/>
        </g>
      </g>
      <g>
        <path class="cls-3" d="M802.08,78.4C861.21,87.1,909.42,46,958.53,20.22c23.09-12.07,48.66-20.79,75-19.89C1081.44,3.57,1126.78,22,1171,39.58c60.62,25.77,122.94,49.78,189.45,53.12,64,5.79,128.34,5.88,192.43,10.29,69.52,3.91,105,10,162.3,52.72,111.29,82.13,155.87,140,300,76.91,55-21.09,111.35-51.61,172-44.47Q2212,261.07,2236.71,334c9.47,29.77,22,58.66,27.48,89.55,18.38,109.3,21.92,220.59,37.14,330.34,4.17,30.3,8.8,60.64,16.51,90.23,6.37,27.22,20.88,63.52,55,58,15.86-1.36,31.71-6.48,47.69-3.67,37.2,7.61,49.43,50.1,60.3,81.6,16.25,49.53,30.49,99.72,44.55,149.94,37.36,134.3,73.08,269.2,117.7,401.34q-187.51-25.86-375-51.85L2148.6,1463c-36.92-5.57-74.13-10.2-111.54-7.84-116.13,5.85-226.73,46.77-341.63,61.24-111.49,14.91-181.87-2.84-276.9-61.42-78.71-47.57-151.47-104.15-227.47-155.8-70.06-46.09-143.23-96.9-228.41-107.44-92.21-13.18-181.61,17.24-270,38.7-54.71,12.65-111.63,16.81-167.3,8.24-174.93-24.77-350.11-47.7-525-72.49,40.23-63.26,90.37-112.78,161.52-139.07,56.28-20.88,93.91-65.9,120.09-118.39C307.42,860,328.22,809,348.45,757.91c42.79-106.86,77.76-217.07,126.23-321.56,17.71-36.55,42.27-69.07,63.58-103.5q53.07-82.17,106.12-164.35C683.57,104.79,765,129.88,802.08,78.4Z"/>
        <path class="cls-3" d="M56.85,1094.33c175.34,30.55,355,21.65,530.23,53.2,48.51,5,97.39-1.61,144.4-13.72,89.21-24.15,180.15-58.23,273.94-41.62,140.72,19.55,309.68,205.76,439.05,281.91,81.89,54.12,166,66.13,261.46,47.1,106.34-19.57,207.29-64.63,315.62-73.76,35.67-3.58,71.23,1.14,106.46,6.45q56.89,7.75,113.71,16c122.17,17.56,244.21,36.06,366.54,52.45"/>
        <path class="cls-3" d="M106.32,1054.42c110,18.35,221.46,1.51,331.89-3.56,39-1.83,78-2.29,116.92.75,25.37,1.44,50.25,7.05,75.55,8.82,49.48,3.44,98.73-6.17,146-20,94.14-28.42,192.31-68.7,292-44.7,66.74,18.54,120.74,65.52,172.13,109.93,78.84,69.17,150,148.33,238.28,205.91,79.07,54.72,168.09,48,255.67,19.54,97.54-29.78,189.87-80,292.29-91.55,32.37-4.06,64.71.76,96.72,5.56q53.82,7.58,107.52,16c115.08,17.9,229.9,37.53,345.33,53.11"/>
        <path class="cls-3" d="M150.67,1031.93c172.83,20,336.78-81.94,510-53.71,54.71,3.59,108.75-9.56,160.46-26.22,100.16-31.14,222.28-90.29,324.95-40.76,58.83,31.33,104.29,81.92,148.84,130.43,69.13,75,130.61,160.27,216.52,217.25,77.46,53.82,175.1,18.67,252.85-16.48,91-39.79,177.94-97.17,278.43-108.92,27.29-3.19,54.45,1.76,81.38,5.78,35.34,5.28,70.61,11.09,105.82,17.16,105.8,18.26,211.25,38.69,317.62,53.4"/>
        <path class="cls-3" d="M192,1012.38c154.84,10.1,285.87-100.26,437.45-112.63,32.56-3.26,64.93,4.82,97.5,1.5,46.21-3.4,91-16.72,134.56-31.76,95.84-31.34,249-108.15,340.77-39.86,80.11,60.11,131.49,149.11,191.18,227.83,40.51,53.82,81,110.78,138,148.24,79.52,53.08,184.38-10.58,256.85-50.47,83.88-46.49,164.93-109.07,262.49-121.45,25.46-2.91,50.66,2.89,75.72,6.58,33,5.3,65.93,11.24,98.77,17.51,98.21,18.81,196,40.11,295.07,54.11"/>
        <path class="cls-3" d="M232.16,981.29C366.66,990,495.4,869.82,624.38,836.73c20.64-5.5,41.91-9,63.29-8.9,15.44.06,30.73,3,46.2,2.57,30-.17,59.72-5.59,88.65-13.25,112.42-27.13,264-121.84,378.27-89.76,114,46.5,204.19,291.21,300.83,387.11,21.86,22.45,47.84,43.7,79.43,49.47,48.57,5.25,95.28-15.92,137.07-38.47,102.2-52.45,246.23-193,360.52-181.26,139.87,19.69,276,59.49,415.91,79.12"/>
        <path class="cls-3" d="M273.32,924.27c131,11,261.19-123.6,387.86-156.18,30.59-9.59,62.08-7.65,93.47-5.18,26.49.23,52.8-4.31,78.4-10.89,115.93-27.12,268.2-130.28,385.81-95.1,113.47,47.58,193.66,298.9,290.31,394.92,64.5,71.85,135.9,47.15,209,4.13,96.28-53,238.64-198.77,347.3-187.49,136.63,15.75,267.23,63.57,403.81,79.6"/>
        <path class="cls-3" d="M316.22,836.29c122.9,6.55,237.27-92.1,352.86-126.08,35.7-12.18,73-14.14,110.3-11.1,28.33-.23,56.28-6.17,83.37-14.15,114.07-31.45,248.94-126.7,367.34-69.85,51.83,30.38,85.07,83.24,117.74,132.07,54,81.66,97.18,172.94,168.57,241.43,67.89,66.6,141.4,34.59,211.72-8.71,89.7-51.63,225.22-187.57,329.22-170.6C2190,823.1,2308.8,895.78,2441.81,908"/>
        <path class="cls-3" d="M359.56,729.33c139.09,11.38,258.63-87.65,395.87-92,22.22-.76,44.26,4.18,66.47,1.78,33.62-2.67,66.18-12.41,97.93-23.34,124.82-45.2,240.06-102.24,351.6,6.48,94.18,89.7,169.92,271.8,283.34,326.41,58.66,27.08,122.11-3.66,172.81-34.51,46.45-28.28,89.83-61.28,135.17-91.26,42.78-27.58,87.75-56.61,139.18-63.43,149.54-3.3,264.7,122.4,410.65,138.19"/>
        <path class="cls-3" d="M401.83,617.07c91.76,13.68,182-16,271.84-30.34,31.88-5.21,64.17-8.84,96.51-8,20.53,0,40.62,4.82,61.09,5.36,39.72.72,78.31-10.68,115.81-22.61,140.58-47.38,204.15-62,320.93,44.05,90.45,82.81,171.44,239.66,286.2,282.33,61.15,21.72,119.79-3,172.25-34.77C1783,819.77,1835.22,779.22,1893,747.8c30.72-16.32,63.82-31.18,99.13-32,150.67,9.1,245.1,160.93,391.33,185"/>
        <path class="cls-3" d="M441.52,513.21C574.14,538,710.37,503.53,842.84,530.6c40.1,4.27,79.73-6.35,118-17.29,76.86-24,159.44-45,228.94,9.45a246.92,246.92,0,0,1,33,29.7c14.49,12.15,28.8,24,42.19,37.36C1350,670.06,1433.32,800,1548.46,834.17c63.55,17.19,111.82-.34,167.06-31.84,61.59-34.43,117.89-78.29,182.18-107.87,180.8-91.05,295.22,176.56,458.5,206.68"/>
        <path class="cls-3" d="M477.12,431.42c119,21.17,240.27,24.69,359.48,44.3,42.23,10.11,85.43,2.86,126.38-9.46,82-25.42,157.86-45.21,228.31,18.93,23.26,20.31,41.25,45.85,62.34,68.25,79.14,86.87,161.8,198.37,277.82,234.88,64.21,19.84,117.38-.6,173.27-32.39,62.35-34.63,119.66-78.56,185.27-107.19,74.2-34.5,131.21-13.92,191,36.64,77.75,61.61,152.22,176.84,251.69,197.14"/>
        <path class="cls-3" d="M507.75,380.11c109.54,13.24,218.13,33.12,327.47,47.74,47,7.09,81.47,11.81,128-2.78,38.65-10.6,76.23-26.36,116.33-30.76,72-10.51,130.47,38.81,168.52,94.89,71.7,94.06,156.68,218.2,271.78,259.08,101,37,258.84-103.91,355.77-141.41,76.29-32.74,114.54-29,180.82,22.23,81.9,60.59,158,177.35,258.05,201.36"/>
        <path class="cls-3" d="M536.32,335.86C647.68,348.46,755.21,382.58,866.1,398c35.88,6.15,68.57,8.67,103.6-3.73,108.66-38.14,187.61-95.86,279.43,13.5,75.53,87.53,154.16,216.62,261.7,264.06,71.43,35.08,227.48-53.62,300.07-81.14,46.18-18,95.48-36.69,145.71-33.38,129,36.12,214.58,158.62,344.26,193"/>
        <path class="cls-3" d="M563.5,293.77c82.13,10.66,159.56,41.51,238.79,64.05C838.75,368.15,875.83,377,913.57,381c23.68,1.62,47-5.12,68.57-14.45,57.19-24.43,106.42-68.66,168.79-80,80.06-14.33,130,64.07,177.75,114.93,43.45,49.56,85.72,101.2,138.07,141.78,37.5,29,76.85,47.3,125,38,111.46-10.18,220.64-45.52,333.35-39.47,126.53,20,239,91.31,365.06,113.66"/>
        <path class="cls-3" d="M589.37,253.7c64.9,10,124.81,38.35,184.78,63.73,34.55,14.65,69.53,28.68,105.93,38,27.88,8,57.67,12,85-.14,84.33-31,161.34-148.73,255.18-136.63C1276,230.5,1326.21,292.48,1366,331.36c55.21,54.61,119.54,134.72,199.73,147.4,44.69.7,89.79-.92,134,7.2,66.77,10.47,130.49,34.42,197.11,45.68,127.54,13.2,256.19,14.7,383.94,26.19"/>
        <path class="cls-3" d="M614,215.51c52.39,8.85,100.1,33.72,146.48,58.53,43.58,23.34,87,48,134.6,62.41,24.47,8.31,50.89,11.9,75,.28,91.14-35.32,183.32-207,283.68-184.14,71,23.34,131.13,99.48,187.18,148.19,151.39,140.44,145.5,44.55,272.39,109.82,62.78,34.14,109.15,108.42,185.89,110.63,125.72-2.37,246.08-53.16,372.12-51.12"/>
        <path class="cls-3" d="M637.57,179c74.84,12.1,135.25,61.78,199.67,98,35.18,19.51,73.08,39,113.89,41.45,19.85-.33,38.44-9,54.83-19.64,52.2-35.72,90.48-87.42,134.66-131.95,41.9-43,98.47-95.56,161-59.23,96.63,49.23,171.9,176.48,275.15,206,14.83,4,29.78,2.14,44.85.54,18.2-1.19,36.65.46,54,6.27,66.77,22.26,91,95.33,136,142.82,16.09,16.86,36.77,30.56,60.24,33.71,41,2.82,81.46-8.62,120.29-20.71,49.66-15.92,98-35.83,147.69-51.66,38.85-12,79.3-23.32,120.31-20"/>
        <path class="cls-3" d="M661.94,148c76.47,14.95,139.74,63.39,208.22,97.52,28.3,14.11,58,26.33,89.23,32.06,23.57,1,45.84-9.27,65.18-21.93,54.63-37.23,95.46-90.51,144-134.76,29.78-26.65,64.08-56.26,106.11-56.82,16.35,1.61,31.64,9.3,46,17C1410.12,130.11,1494,255.4,1591.88,274.9c12.09,2.32,24.2.06,36.38-.58,22.39-1,45.12,3.66,64.6,14.89,57.9,33.39,77.19,104,126.08,146.68,94.61,82.81,306.16-90.47,427.77-72.44"/>
        <path class="cls-3" d="M690.83,129.63c98.36,18.63,185.77,72.8,284,92C1064,224.38,1147.42,108.34,1226.21,70c43.66-22.47,68.17-22.13,110.51,2.44,42.66,24,79.92,56.18,118.39,86.16,41.77,31.89,84.7,67.3,137.18,78.79,18.75,4.32,38.17-.79,57,3.12,101,15.56,120.82,148.59,211.7,173.48,116,18.94,254.39-100.44,372.76-88.67"/>
        <path class="cls-3" d="M721.92,119c65.82,9.74,131.65,19.18,197.49,28.75,56.42,7.42,94.11,21,149.81-2,45.31-17.14,86.1-43.89,129.83-64.41,33.13-14.84,70.45-30.25,107.29-23.74,65.94,18.82,120.56,62.78,178.87,97.11,32.57,19.46,66.46,38.31,103.76,46.73,14.75,4,29.93,2.78,45,3.64a130.84,130.84,0,0,1,53,16.45c34.58,19.38,60.09,50.63,86.09,79.81,63.78,76.31,111,87.73,205,56,78.42-24.11,159.46-76,243.36-68.54"/>
        <path class="cls-3" d="M752.57,110.65c62,6.54,123.17-7.74,184.56-14,39.77-5.34,79.41,1.51,119.18,1,82.28-3,161.24-37.6,244.17-31.34C1389,79.22,1465.15,132.91,1550,158.47c28,9.72,57.22,12.82,86.56,14.68C1703,183.39,1746.66,240,1794,282.26c31.49,29.55,71.6,53.81,116.32,50C2013.39,326,2105,244.2,2209.52,253.87"/>
        <path class="cls-3" d="M780.16,99c75.11,6.88,137.72-44.2,209.41-55.94,30.53-6.08,60.89,1.2,91.13,5.38,41.64,5.87,83.4,10.8,125.12,16,56.22,7.22,112.58,14.26,168,26.23,69.67,14.89,138.37,34.71,208.93,45.2,22.46,4,45.73,3.07,67.57,10.26,75.35,24.66,122.66,95.06,191.51,131.1,120.23,61.75,234.4-71.48,356.28-56.87"/>
        <path class="cls-3" d="M2150,188.07C2166,234.8,2178.14,282.7,2192.26,330c8.7,31.61,21.71,62,26.36,94.6,17.32,108.75,23.94,219,40.09,327.91C2266.2,788,2269,868,2304.58,883.86c20.57,8.7,43.6-1.16,64.7,5.22,45.95,15.86,53,76.26,67.08,116.61,14.65,50.87,27.6,102.23,40.51,153.58,30.41,121.51,60.27,243.32,98.45,362.69"/>
        <path class="cls-3" d="M2111.85,196c14.25,45,21.6,91.67,32.24,137.52,6.73,33.31,19,65.11,24.6,98.65,19.3,108.31,31,217.92,51.19,326.09,4.89,22.87,7.74,46.6,16.2,68.45,26.51,65.77,86.39,11.07,120.75,88.21,13.78,29.52,20.67,61.78,29.26,93.12,12.14,47.51,22.79,95.4,33.38,143.3,26.65,121,52.71,242.36,88.08,361.22"/>
        <path class="cls-3" d="M2073,209.29c13.48,49.29,15.47,100.73,24.11,150.92,7.37,43.77,20.23,86.34,28.67,129.93,14.13,65.52,27.84,131.17,42.31,196.62,9.7,37.42,13.82,77,29.47,112.54,42.19,71.47,92,4.91,129.11,168.87,41.6,177.48,64.43,359.14,113.12,535.06"/>
        <path class="cls-3" d="M2033.86,225c13.33,61.48,6.25,125.29,16.76,187.2,12,66.3,37.58,129.22,57.58,193.35,10.56,32.27,20.83,64.66,29.94,97.37,6.85,23.78,10.94,49,24.56,70.11,15.89,26.32,45.16,39.73,64.5,63,37.62,45.36,44.9,106.61,56.77,162.46,29.93,165,47.64,332.35,88.08,495.35"/>
        <path class="cls-3" d="M1994.75,240.5c11.61,72-7.39,145.88,7.31,217.76,8.11,33.64,25.67,64.07,41.86,94.36,22.43,40.7,44.24,82.26,56.78,127.24,10,51.3,32.64,79.28,65.74,117.48,43.26,53.27,54.2,123.19,65,189,24.93,165.91,36.53,334,72.9,498.13"/>
        <path class="cls-3" d="M1956,252.89c7.6,60.55-10.25,120.88-8.87,181.54-1.07,40.48,8.85,70.52,37.38,99.74,32.39,32.8,65,68.56,74.52,115.19,8.59,53.6,42.72,96.44,69.06,142.22,23.53,42.47,35.9,90,43.51,137.73,27,181.22,29,365.74,64.92,545.8"/>
        <path class="cls-3" d="M1918,259.42c11.82,70.16-50.41,211.57,4.42,262.91,26.47,22,64.48,31.54,80,65.16,8.78,15.82,11.39,33.87,15.29,51.31A299,299,0,0,0,2034,687.31c13.65,31.62,31.77,61,45.78,92.5,15.4,33.89,26.17,69.75,33.09,106.34,14.72,81.9,17.75,165.35,23.27,248.27,6.77,110.75,13.79,221.84,32.64,331.33"/>
        <path class="cls-3" d="M1881.06,257.34c10.53,69.91-55.08,206.56-5.08,261.48,23.28,19.86,60.08,20.7,76.43,49.44,11,16.58,13.61,36.66,17.63,55.74a348.57,348.57,0,0,0,15.2,49.07c27.73,65.68,61,129.84,71.89,201.18,13.72,81.94,14.74,165.39,18.45,248.26,4.31,111.58,8.72,223.54,25.38,334.12"/>
        <path class="cls-3" d="M1845.26,245.46c8.78,78.4-53.73,201.31.14,266.69,25.61,27.78,55.89,52,66.95,89.88,12.13,49.11,29.9,96.33,48.74,143.24a670.77,670.77,0,0,1,38.43,147.13c20.13,187,8.08,376.23,32.71,563"/>
        <path class="cls-3" d="M1810.41,226.06c4.76,49.13-8.74,97.69-12.44,146.49-9.25,68.36,13.79,132.79,39.83,194.8,16.74,40.08,27.68,82.09,41.15,123.29,28,79.73,52.31,161.32,59.54,245.9,13.51,175.25,4.93,351.68,23.91,526.67"/>
        <path class="cls-3" d="M1776.15,201.93c7.14,54.13-5.91,108.46-4.5,162.75,5.58,78.23,6.31,157.14,19.33,234.71,7.76,53.51,28,103.79,42.57,155.59a1113,1113,0,0,1,40.24,227.21c10.15,164.68,3.36,330.07,18.08,494.58"/>
        <path class="cls-3" d="M1742.13,175.86c6.73,36.36,3.76,73.57,3.86,110.33-.88,29.06,2.2,58,5.18,86.69-4.1,80.84-14.55,161.53-12.34,242.61.8,26.5,2.76,53.12,8.64,79,5.87,21.88,15,42.73,20.62,64.75,14.05,49.65,23,100.59,29.39,151.77,23.39,193,9.25,388,23.57,581.67"/>
        <path class="cls-3" d="M1708,150.65c7.59,37.77,6.82,76.54,9.08,114.84.19,25.62,6,50.9,6.71,76.28-8,72.46-22,144.21-30.16,216.69-5.85,58-13.52,117.89-1.1,175.53,38.6,95.11,42.59,199.6,48.16,301,7.7,157.45,1.76,315.16,9.69,472.65"/>
        <path class="cls-3" d="M1673.33,129.1c6.74,40.14,7.48,81,10.59,121.45,1.12,15.43,2.47,30.85,4.29,46.22.78,7.54,2.64,14.68,1,22.29-11.17,78.51-29.56,155.9-41.93,234.25C1637.89,617.15,1626,682.5,1634.56,747c1.31,11.8,6.59,22.09,11.29,32.75A283.87,283.87,0,0,1,1659,822.69c17,78.86,16.76,160.15,18.65,240.45,3.69,151.66-1.22,303.29,2.55,455"/>
        <path class="cls-3" d="M1637.83,114c2.92,42.83,3.43,85.78,4.86,128.68-.13,23.54,3.89,47.13,1.08,70.56-12.94,84.35-34.42,167.27-48.8,251.4-10,61.67-22.4,124.66-15.51,187.25,1.34,14.27,7.45,26.77,14.23,39.07a197.66,197.66,0,0,1,12.51,37.76c16.74,79,12.15,160.49,11.89,240.7-.78,150.53-6.49,300.88-7.11,451.43"/>
        <path class="cls-3" d="M1601.27,107.37c-2.78,72-3.13,144.34-8.82,216.17-14.09,86-35.67,170.79-49.88,256.84-8.5,58.56-21.66,119.25-10.42,178.16,2.18,10.51,8.87,18.87,13,28.54,6.79,15.29,10.83,31.66,13.73,48.11,11.41,71.79,6.47,144.93,4.31,217.26-3.28,153.31-17.38,306-20.84,459.31"/>
        <path class="cls-3" d="M1564,103.81c-.85,41.45-5.27,82.69-8.39,124-2.79,28.3-2.28,56.85-7,84.95-16.53,93.8-38.59,186.74-52.62,281-6.47,46.68-13.92,94.12-9.43,141.27,1,15.65,9,29.09,13.53,43.78,6.08,19.37,9.48,39.48,11.65,59.65,5.73,56.7,3.09,113.84.67,170.68-2.64,47.29-3.51,94.75-8.55,141.87-12.86,110.52-31.36,220.46-34.7,331.92"/>
        <path class="cls-3" d="M1526,101.37c-.61,30.28-6.46,60-10.68,89.94-4.3,27-5.89,54.2-9.07,81.28-19.75,117.44-46.32,234-59.07,352.56-3,31.51-6.14,63.44-2.49,95,3.74,21,12.7,40.67,15.39,62,8.63,50.8,7.12,102.63,4.94,153.94-2.89,58.84-5.92,117.91-17.85,175.76-22.2,108.14-49.12,215.76-55.64,326.41"/>
        <path class="cls-3" d="M1487.74,99.61c-1.14,29.31-14.6,56.29-18.93,85.14-12.55,89.49-29.89,178.34-43.51,267.74-10.54,71.71-22.06,143.77-23.34,216.35-1.72,27.37,8.84,52.71,12.79,79.39,6.9,41.2,6,83.19,3.75,124.78-2.17,33.82-3.92,67.84-10.15,101.24-12.59,68.68-35.76,134.76-54.58,201.88-19.49,68-35,137.29-42.41,207.75"/>
        <path class="cls-3" d="M1449.33,98.06c-.31,13.52-12.9,21.78-17.54,33.75-8.8,18.73-11.45,39.35-14.61,59.65Q1401,290.35,1387.3,389.82c-11.17,87-24.49,174.24-25.57,262,3.25,36.88,15,72.85,12.94,110.34-.86,65.55-10.23,130.94-32.09,192.95-41.66,122.34-94.8,242.12-112.3,371.22"/>
        <path class="cls-3" d="M1411.05,96.27c-.48,4.73-12-.63-16,2.36-21.85,12.67-21.3,54.93-26.35,77.7-7.36,50.26-13.56,100.77-19.52,151.24-7.77,66.53-15,133.2-20.89,199.91-2.57,29.76-5.11,59.73-6.28,89.5.75,19.75,4.5,39.1,6.73,58.67,3.29,72.65-14,144.89-41.28,211.93C1237,1013.85,1173.72,1136.87,1150.08,1272"/>
        <path class="cls-3" d="M1373.13,93.79c-36.15-52.44-44.91,23-48.28,50.85-4.45,33.69-7.91,67.58-11.24,101.44-9.35,95.76-16.78,191.79-25.71,287.56-1.77,20.29-4.66,40.44-5,60.73-.68,15,2,29.88.74,44.87-4.76,53.71-15.66,107-36.81,156.86-59,143.2-142.76,277.88-174.35,431.17"/>
        <path class="cls-3" d="M1335.81,90.14c-6.72-21-32.28-52.51-44.29-15.6-12.66,44.69-12.66,92.15-17.07,138.22-5.27,74.08-9.06,148.35-15.41,222.35-3.08,46.08-11.26,91.42-18.86,136.83-8.17,54-16.82,108.74-36.54,160-64,157.18-166.24,299.24-204.39,466.57"/>
        <path class="cls-3" d="M1299.31,84.36c-7.45-19.78-34.56-45.91-47.52-15.09-16.58,44.64-15.43,93.93-20.42,140.86-5,66.12-8.46,132.48-16.49,198.32C1209,456.86,1196,504,1188.35,552.06c-11,53.42-17.91,108.34-37.53,159.55C1084.31,873.5,976.44,1018,932.41,1189.21"/>
        <path class="cls-3" d="M1263.7,74.9c-70.61-49.31-71.49,113.81-78.35,152.55-6.91,62.06-11.42,124.76-25.44,185.73-16.65,65.14-25.68,131.94-40.45,197.55-8,38.28-14.79,77.1-30.9,113.1-67.75,157.5-168.41,300.89-216,467"/>
        <path class="cls-3" d="M1228.74,62.74c-71.06,30.17-76.94,116.21-87.88,182.84-6.27,42-11.85,84.2-21.25,125.64-4.11,20.74-12.5,40.18-16.36,60.95q-19.73,91.71-41,183c-10.49,44.52-18.75,89.84-37.93,131.73-66.25,152-157.95,293.07-206.62,452.53"/>
        <path class="cls-3" d="M1194.16,49.06c-22,34.18-46.45,67.11-61.86,105-22.58,50.71-33,105.14-43.65,159.32-7.26,35.66-16.35,70.84-29.49,104.8q-9.78,40.08-20.08,80c-13.16,50.73-27,101.2-40.44,151.88-11.54,45.78-23.48,91.52-43.31,134.58-62.75,142.58-142.17,278.26-189.75,427.24"/>
        <path class="cls-3" d="M1159.65,35c-27.31,63.35-57.7,125.64-79.06,191.38-18.09,38.81-27.34,80.75-39.46,121.64-8.22,32.4-23.12,62.43-32.52,94.37-29.87,103.45-63.06,205.88-94,309-59.34,161-147.18,310.37-200.52,473.88"/>
        <path class="cls-3" d="M1125,21.8c-29.32,81-58.23,162.18-85.42,243.89-21.66,46.1-38.33,94.29-58,141.28-20.27,43.29-32.44,89.71-48.91,134.51-26.78,75.78-53.75,151.46-79.23,227.72-58.07,158.2-137.3,307.91-192.25,467.42"/>
        <path class="cls-3" d="M1089.77,10.57c-32.63,94.18-59.18,190.48-91.78,284.68C970.2,357,932.68,414.38,910.38,478.68c-49.68,127.6-98.61,255.48-148.7,382.92-52.52,127-108.67,252.51-157.11,381.19"/>
        <path class="cls-3" d="M1053.82,2.5c-37.24,101.21-59.74,207.57-98.91,308.12-12.08,30.59-32.59,56.16-50.52,83.33-16.52,26.49-28.75,55.33-40.67,84.13Q703.47,859.67,542.19,1240.79"/>
        <path class="cls-3" d="M1018.43.85C979.6,102.67,953,209.19,910.77,309.69c-12.61,28.18-33.14,51.24-50.72,76.26-17.22,25.21-29.82,53.14-42.53,80.83C763.21,588.65,711.31,711.59,656,833c-60,133-122.83,264.75-181.33,398.5"/>
        <path class="cls-3" d="M986.17,8.13C946,104.62,912.14,204.06,868.52,299,853.65,328,832.1,352.42,814,379.19s-32.3,55.69-46.23,84.7C712.87,583.72,665.7,707,607,825.09c-64.62,133.41-138.73,262-200.14,397"/>
        <path class="cls-3" d="M956.08,21.5c-25.28,54.4-52.82,107.78-79.36,161.58-18.22,35.09-33.27,71.85-53,106.08-19.87,33.74-45.25,63.78-65.44,97.32-26,42.34-46.89,87.56-66.15,133.32-48.23,114.83-91.84,232-151.05,341.79-65.33,118.25-143.77,228.91-201.94,351.23"/>
        <path class="cls-3" d="M927.14,38.08c-43.56,76.59-99.29,145.74-139.54,224.35C753,319.9,711.29,372.9,681.14,433.07c-52.51,107.14-89,221.35-137.06,330.48-27,62.94-57.6,124.64-97.89,180.19-62.7,83.62-127.1,166.32-174.86,259.83"/>
        <path class="cls-3" d="M898.3,55c-32.15,48.71-79.49,84.89-114.78,131.16-19,23.37-31.85,50.8-48.08,76-22.24,35.5-46.11,69.93-67.9,105.72C599.38,475.29,564.6,599.07,516.77,716.05c-30.31,74.06-57.86,150.87-104.15,216.76-31.87,45.35-74.09,81.7-110.77,122.93-37.92,42.25-70,89.35-98.3,138.59"/>
        <path class="cls-3" d="M868.54,69.24c-23,31.52-59.21,49-89.81,72-42.34,29-57.53,58.54-82.67,100.84-40.86,66.71-86.78,130.67-121.57,200.88C521,562.35,482.3,687.88,431.56,808.47c-41.37,99.07-68.12,158.73-159.28,222.26-56,41-100.77,95-136.51,154.31"/>
        <path class="cls-3" d="M836.81,78C798.47,126.1,721.42,120.7,684,179.91,632.64,267.24,572.22,349.34,525.15,439.1,473,554.61,435.44,676.19,387.61,793.53c-24.64,58.11-46.7,119-84.66,169.94-23.3,31.22-56.16,52.76-90.12,70.84-61.28,31.57-108.5,83.49-144.82,141.35"/>
      </g>
    </g>
  </g>
</svg>
